# Wavefront OBJ file automatically generated by Tiled2Unity

# Vertices (Count = 266)
v -112 -128 0
v -128 -128 0
v -128 -112 0
v -112 -112 0
v -144 -128 0
v -144 -112 0
v -160 -128 0
v -160 -112 0
v -176 -128 0
v -176 -112 0
v -192 -128 0
v -192 -112 0
v -208 -128 0
v -208 -112 0
v -224 -128 0
v -224 -112 0
v -240 -128 0
v -240 -112 0
v -256 -128 0
v -256 -112 0
v -336 -128 0
v -352 -128 0
v -352 -112 0
v -336 -112 0
v -368 -128 0
v -368 -112 0
v -384 -128 0
v -384 -112 0
v -400 -128 0
v -400 -112 0
v -416 -128 0
v -416 -112 0
v -432 -128 0
v -432 -112 0
v -448 -128 0
v -448 -112 0
v -464 -128 0
v -464 -112 0
v -480 -128 0
v -480 -112 0
v -112 -144 0
v -128 -144 0
v -144 -144 0
v -160 -144 0
v -176 -144 0
v -192 -144 0
v -208 -144 0
v -224 -144 0
v -240 -144 0
v -256 -144 0
v -272 -144 0
v -272 -128 0
v -288 -144 0
v -288 -128 0
v -304 -144 0
v -304 -128 0
v -320 -144 0
v -320 -128 0
v -336 -144 0
v -352 -144 0
v -368 -144 0
v -384 -144 0
v -400 -144 0
v -416 -144 0
v -432 -144 0
v -448 -144 0
v -464 -144 0
v -480 -144 0
v -112 -160 0
v -128 -160 0
v -144 -160 0
v -160 -160 0
v -176 -160 0
v -192 -160 0
v -208 -160 0
v -224 -160 0
v -240 -160 0
v -256 -160 0
v -272 -160 0
v -288 -160 0
v -304 -160 0
v -320 -160 0
v -336 -160 0
v -352 -160 0
v -368 -160 0
v -384 -160 0
v -400 -160 0
v -416 -160 0
v -432 -160 0
v -448 -160 0
v -464 -160 0
v -480 -160 0
v -112 -176 0
v -128 -176 0
v -144 -176 0
v -160 -176 0
v -176 -176 0
v -192 -176 0
v -208 -176 0
v -224 -176 0
v -240 -176 0
v -256 -176 0
v -272 -176 0
v -288 -176 0
v -304 -176 0
v -320 -176 0
v -336 -176 0
v -352 -176 0
v -368 -176 0
v -384 -176 0
v -400 -176 0
v -416 -176 0
v -432 -176 0
v -448 -176 0
v -464 -176 0
v -480 -176 0
v -112 -192 0
v -128 -192 0
v -144 -192 0
v -160 -192 0
v -176 -192 0
v -192 -192 0
v -208 -192 0
v -224 -192 0
v -240 -192 0
v -256 -192 0
v -272 -192 0
v -288 -192 0
v -304 -192 0
v -320 -192 0
v -336 -192 0
v -352 -192 0
v -368 -192 0
v -384 -192 0
v -400 -192 0
v -416 -192 0
v -432 -192 0
v -448 -192 0
v -464 -192 0
v -480 -192 0
v -112 -208 0
v -128 -208 0
v -144 -208 0
v -160 -208 0
v -176 -208 0
v -192 -208 0
v -208 -208 0
v -224 -208 0
v -240 -208 0
v -256 -208 0
v -272 -208 0
v -288 -208 0
v -304 -208 0
v -320 -208 0
v -336 -208 0
v -352 -208 0
v -368 -208 0
v -384 -208 0
v -400 -208 0
v -416 -208 0
v -432 -208 0
v -448 -208 0
v -464 -208 0
v -480 -208 0
v -112 -224 0
v -128 -224 0
v -144 -224 0
v -160 -224 0
v -176 -224 0
v -192 -224 0
v -208 -224 0
v -224 -224 0
v -240 -224 0
v -256 -224 0
v -272 -224 0
v -288 -224 0
v -304 -224 0
v -320 -224 0
v -336 -224 0
v -352 -224 0
v -368 -224 0
v -384 -224 0
v -400 -224 0
v -416 -224 0
v -432 -224 0
v -448 -224 0
v -464 -224 0
v -480 -224 0
v -112 -240 0
v -128 -240 0
v -144 -240 0
v -160 -240 0
v -176 -240 0
v -192 -240 0
v -208 -240 0
v -224 -240 0
v -240 -240 0
v -256 -240 0
v -272 -240 0
v -288 -240 0
v -304 -240 0
v -320 -240 0
v -336 -240 0
v -352 -240 0
v -368 -240 0
v -384 -240 0
v -400 -240 0
v -416 -240 0
v -432 -240 0
v -448 -240 0
v -464 -240 0
v -480 -240 0
v -224 -256 0
v -240 -256 0
v -256 -256 0
v -272 -256 0
v -288 -256 0
v -304 -256 0
v -320 -256 0
v -336 -256 0
v -352 -256 0
v -368 -256 0
v -224 -272 0
v -240 -272 0
v -256 -272 0
v -272 -272 0
v -288 -272 0
v -304 -272 0
v -320 -272 0
v -336 -272 0
v -352 -272 0
v -368 -272 0
v -224 -288 0
v -240 -288 0
v -256 -288 0
v -272 -288 0
v -288 -288 0
v -304 -288 0
v -320 -288 0
v -336 -288 0
v -352 -288 0
v -368 -288 0
v -224 -304 0
v -240 -304 0
v -256 -304 0
v -272 -304 0
v -288 -304 0
v -304 -304 0
v -320 -304 0
v -336 -304 0
v -352 -304 0
v -368 -304 0
v -224 -320 0
v -240 -320 0
v -256 -320 0
v -272 -320 0
v -288 -320 0
v -304 -320 0
v -320 -320 0
v -336 -320 0
v -352 -320 0
v -368 -320 0
v -272 -336 0
v -288 -336 0
v -304 -336 0
v -320 -336 0

# Texture cooridinates (Count = 256)
vt 0.2809938 0.5817528
vt 0.2975186 0.5817528
vt 0.2975186 0.6121635
vt 0.2809938 0.6121635
vt 0.2458698 0.5817528
vt 0.2623947 0.5817528
vt 0.2623947 0.6121635
vt 0.2458698 0.6121635
vt 0.2985557 0.5817528
vt 0.3150806 0.5817528
vt 0.3150806 0.6121635
vt 0.2985557 0.6121635
vt 0.2634318 0.5494334
vt 0.2799567 0.5494334
vt 0.2799567 0.5798442
vt 0.2634318 0.5798442
vt 0.3161177 0.2585589
vt 0.3326426 0.2585589
vt 0.3326426 0.2889697
vt 0.3161177 0.2889697
vt 0.2809938 0.5494334
vt 0.2975186 0.5494334
vt 0.2975186 0.5798442
vt 0.2809938 0.5798442
vt 0.2985557 0.5494334
vt 0.3150806 0.5494334
vt 0.3150806 0.5798442
vt 0.2985557 0.5798442
vt 0.3161177 0.4847946
vt 0.3326426 0.4847946
vt 0.3326426 0.5152054
vt 0.3161177 0.5152054
vt 0.1229359 0.1292813
vt 0.1394608 0.1292813
vt 0.1394608 0.1596921
vt 0.1229359 0.1596921
vt 2.017691E-06 0.1616006
vt 0.01652691 0.1616006
vt 0.01652691 0.1920115
vt 2.017691E-06 0.1920115
vt 0.017564 0.1616006
vt 0.03408889 0.1616006
vt 0.03408889 0.1920115
vt 0.017564 0.1920115
vt 0.03512599 0.1616006
vt 0.05165087 0.1616006
vt 0.05165087 0.1920115
vt 0.03512599 0.1920115
vt 2.017691E-06 0.1292813
vt 0.01652691 0.1292813
vt 0.01652691 0.1596921
vt 2.017691E-06 0.1596921
vt 0.017564 0.1292813
vt 0.03408889 0.1292813
vt 0.03408889 0.1596921
vt 0.017564 0.1596921
vt 0.03512599 0.1292813
vt 0.05165087 0.1292813
vt 0.05165087 0.1596921
vt 0.03512599 0.1596921
vt 2.017691E-06 0.09696192
vt 0.01652691 0.09696192
vt 0.01652691 0.1273727
vt 2.017691E-06 0.1273727
vt 0.017564 0.09696192
vt 0.03408889 0.09696192
vt 0.03408889 0.1273727
vt 0.017564 0.1273727
vt 0.03512599 0.09696192
vt 0.05165087 0.09696192
vt 0.05165087 0.1273727
vt 0.03512599 0.1273727
vt 0.2283078 0.517114
vt 0.2448327 0.517114
vt 0.2448327 0.5475248
vt 0.2283078 0.5475248
vt 0.1756219 0.4524752
vt 0.1921467 0.4524752
vt 0.1921467 0.482886
vt 0.1756219 0.482886
vt 0.1931838 0.4524752
vt 0.2097087 0.4524752
vt 0.2097087 0.482886
vt 0.1931838 0.482886
vt 0.2107458 0.4524752
vt 0.2272707 0.4524752
vt 0.2272707 0.482886
vt 0.2107458 0.482886
vt 0.1756219 0.3878364
vt 0.1921467 0.3878364
vt 0.1921467 0.4182472
vt 0.1756219 0.4182472
vt 0.1931838 0.3878364
vt 0.2097087 0.3878364
vt 0.2097087 0.4182472
vt 0.1931838 0.4182472
vt 0.2107458 0.3878364
vt 0.2272707 0.3878364
vt 0.2272707 0.4182472
vt 0.2107458 0.4182472
vt 0.1756219 0.2585589
vt 0.1921467 0.2585589
vt 0.1921467 0.2889697
vt 0.1756219 0.2889697
vt 0.1931838 0.2585589
vt 0.2097087 0.2585589
vt 0.2097087 0.2889697
vt 0.1931838 0.2889697
vt 0.2107458 0.2585589
vt 0.2272707 0.2585589
vt 0.2272707 0.2889697
vt 0.2107458 0.2889697
vt 0.1756219 0.1939201
vt 0.1921467 0.1939201
vt 0.1921467 0.2243309
vt 0.1756219 0.2243309
vt 0.1931838 0.1939201
vt 0.2097087 0.1939201
vt 0.2097087 0.2243309
vt 0.1931838 0.2243309
vt 0.2107458 0.1939201
vt 0.2272707 0.1939201
vt 0.2272707 0.2243309
vt 0.2107458 0.2243309
vt 0.1756219 0.355517
vt 0.1921467 0.355517
vt 0.1921467 0.3859279
vt 0.1756219 0.3859279
vt 0.1931838 0.355517
vt 0.2097087 0.355517
vt 0.2097087 0.3859279
vt 0.1931838 0.3859279
vt 0.2107458 0.355517
vt 0.2272707 0.355517
vt 0.2272707 0.3859279
vt 0.2107458 0.3859279
vt 0.3161177 0.7756691
vt 0.3326426 0.7756691
vt 0.3326426 0.8060799
vt 0.3161177 0.8060799
vt 0.1756219 0.3231976
vt 0.1921467 0.3231976
vt 0.1921467 0.3536084
vt 0.1756219 0.3536084
vt 0.1931838 0.3231976
vt 0.2097087 0.3231976
vt 0.2097087 0.3536084
vt 0.1931838 0.3536084
vt 0.2107458 0.3231976
vt 0.2272707 0.3231976
vt 0.2272707 0.3536084
vt 0.2107458 0.3536084
vt 0.1756219 0.2908782
vt 0.1921467 0.2908782
vt 0.1921467 0.3212891
vt 0.1756219 0.3212891
vt 0.1931838 0.2908782
vt 0.2097087 0.2908782
vt 0.2097087 0.3212891
vt 0.1931838 0.3212891
vt 0.2107458 0.2908782
vt 0.2272707 0.2908782
vt 0.2272707 0.3212891
vt 0.2107458 0.3212891
vt 0.7902912 0.8079885
vt 0.8068162 0.8079885
vt 0.8068162 0.8383994
vt 0.7902912 0.8383994
vt 0.5444235 0.8403079
vt 0.5609484 0.8403079
vt 0.5609484 0.8707187
vt 0.5444235 0.8707187
vt 0.5092995 0.9049467
vt 0.5258244 0.9049467
vt 0.5258244 0.9353575
vt 0.5092995 0.9353575
vt 0.5444235 0.9049467
vt 0.5609484 0.9049467
vt 0.5609484 0.9353575
vt 0.5444235 0.9353575
vt 0.5444235 0.6463915
vt 0.5609484 0.6463915
vt 0.5609484 0.6768024
vt 0.5444235 0.6768024
vt 0.5268615 0.6463915
vt 0.5433864 0.6463915
vt 0.5433864 0.6768024
vt 0.5268615 0.6768024
vt 0.5268615 0.9695855
vt 0.5433864 0.9695855
vt 0.5433864 0.9999963
vt 0.5268615 0.9999963
vt 0.4917375 0.9695855
vt 0.5082625 0.9695855
vt 0.5082625 0.9999963
vt 0.4917375 0.9999963
vt 0.5092995 0.9695855
vt 0.5258244 0.9695855
vt 0.5258244 0.9999963
vt 0.5092995 0.9999963
vt 0.5092995 0.8726273
vt 0.5258244 0.8726273
vt 0.5258244 0.9030381
vt 0.5092995 0.9030381
vt 0.9483491 0.7110304
vt 0.964874 0.7110304
vt 0.964874 0.7414411
vt 0.9483491 0.7414411
vt 0.4390516 0.8079885
vt 0.4555765 0.8079885
vt 0.4555765 0.8383994
vt 0.4390516 0.8383994
vt 0.2634318 0.8726273
vt 0.2799567 0.8726273
vt 0.2799567 0.9030381
vt 0.2634318 0.9030381
vt 0.5092995 0.8403079
vt 0.5258244 0.8403079
vt 0.5258244 0.8707187
vt 0.5092995 0.8707187
vt 0.3161177 0.9049467
vt 0.3326426 0.9049467
vt 0.3326426 0.9353575
vt 0.3161177 0.9353575
vt 0.9307871 0.2585589
vt 0.9473121 0.2585589
vt 0.9473121 0.2889697
vt 0.9307871 0.2889697
vt 0.2634318 0.9372661
vt 0.2799567 0.9372661
vt 0.2799567 0.9676769
vt 0.2634318 0.9676769
vt 0.4566136 0.9049467
vt 0.4731385 0.9049467
vt 0.4731385 0.9353575
vt 0.4566136 0.9353575
vt 0.4741756 0.9049467
vt 0.4907005 0.9049467
vt 0.4907005 0.9353575
vt 0.4741756 0.9353575
vt 0.3688037 0.9049467
vt 0.3853286 0.9049467
vt 0.3853286 0.9353575
vt 0.3688037 0.9353575
vt 0.3863657 0.9049467
vt 0.4028905 0.9049467
vt 0.4028905 0.9353575
vt 0.3863657 0.9353575
vt 0.4566136 0.7110304
vt 0.4731385 0.7110304
vt 0.4731385 0.7414411
vt 0.4566136 0.7414411
vt 0.3336797 0.7433497
vt 0.3502046 0.7433497
vt 0.3502046 0.7737606
vt 0.3336797 0.7737606

# Normal
vn 0 0 -1

# Groups (Count = 4)

g mesh_0001
f 1/1/1 2/2/1 3/3/1 4/4/1
f 2/5/1 5/6/1 6/7/1 3/8/1
f 5/5/1 7/6/1 8/7/1 6/8/1
f 7/5/1 9/6/1 10/7/1 8/8/1
f 9/5/1 11/6/1 12/7/1 10/8/1
f 11/5/1 13/6/1 14/7/1 12/8/1
f 13/5/1 15/6/1 16/7/1 14/8/1
f 15/5/1 17/6/1 18/7/1 16/8/1
f 17/9/1 19/10/1 20/11/1 18/12/1
f 21/1/1 22/2/1 23/3/1 24/4/1
f 22/5/1 25/6/1 26/7/1 23/8/1
f 25/5/1 27/6/1 28/7/1 26/8/1
f 27/5/1 29/6/1 30/7/1 28/8/1
f 29/5/1 31/6/1 32/7/1 30/8/1
f 31/5/1 33/6/1 34/7/1 32/8/1
f 33/5/1 35/6/1 36/7/1 34/8/1
f 35/5/1 37/6/1 38/7/1 36/8/1
f 37/9/1 39/10/1 40/11/1 38/12/1
f 41/13/1 42/14/1 2/15/1 1/16/1
f 42/17/1 43/18/1 5/19/1 2/20/1
f 43/17/1 44/18/1 7/19/1 5/20/1
f 44/17/1 45/18/1 9/19/1 7/20/1
f 45/17/1 46/18/1 11/19/1 9/20/1
f 46/17/1 47/18/1 13/19/1 11/20/1
f 47/17/1 48/18/1 15/19/1 13/20/1
f 48/17/1 49/18/1 17/19/1 15/20/1
f 49/21/1 50/22/1 19/23/1 17/24/1
f 50/5/1 51/6/1 52/7/1 19/8/1
f 51/5/1 53/6/1 54/7/1 52/8/1
f 53/5/1 55/6/1 56/7/1 54/8/1
f 55/5/1 57/6/1 58/7/1 56/8/1
f 57/5/1 59/6/1 21/7/1 58/8/1
f 59/25/1 60/26/1 22/27/1 21/28/1
f 60/17/1 61/18/1 25/19/1 22/20/1
f 61/17/1 62/18/1 27/19/1 25/20/1
f 62/17/1 63/18/1 29/19/1 27/20/1
f 63/17/1 64/18/1 31/19/1 29/20/1
f 64/17/1 65/18/1 33/19/1 31/20/1
f 65/17/1 66/18/1 35/19/1 33/20/1
f 66/17/1 67/18/1 37/19/1 35/20/1
f 67/13/1 68/14/1 39/15/1 37/16/1
f 69/13/1 70/14/1 42/15/1 41/16/1
f 70/29/1 71/30/1 43/31/1 42/32/1
f 71/29/1 72/30/1 44/31/1 43/32/1
f 72/29/1 73/30/1 45/31/1 44/32/1
f 73/29/1 74/30/1 46/31/1 45/32/1
f 74/29/1 75/30/1 47/31/1 46/32/1
f 75/29/1 76/30/1 48/31/1 47/32/1
f 76/29/1 77/30/1 49/31/1 48/32/1
f 77/17/1 78/18/1 50/19/1 49/20/1
f 78/17/1 79/18/1 51/19/1 50/20/1
f 79/17/1 80/18/1 53/19/1 51/20/1
f 80/17/1 81/18/1 55/19/1 53/20/1
f 81/17/1 82/18/1 57/19/1 55/20/1
f 82/17/1 83/18/1 59/19/1 57/20/1
f 83/17/1 84/18/1 60/19/1 59/20/1
f 84/29/1 85/30/1 61/31/1 60/32/1
f 85/29/1 86/30/1 62/31/1 61/32/1
f 86/29/1 87/30/1 63/31/1 62/32/1
f 87/29/1 88/30/1 64/31/1 63/32/1
f 88/29/1 89/30/1 65/31/1 64/32/1
f 89/29/1 90/30/1 66/31/1 65/32/1
f 90/33/1 91/34/1 67/35/1 66/36/1
f 91/13/1 92/14/1 68/15/1 67/16/1
f 93/13/1 94/14/1 70/15/1 69/16/1
f 94/29/1 95/30/1 71/31/1 70/32/1
f 95/29/1 96/30/1 72/31/1 71/32/1
f 96/29/1 97/30/1 73/31/1 72/32/1
f 97/29/1 98/30/1 74/31/1 73/32/1
f 98/29/1 99/30/1 75/31/1 74/32/1
f 99/29/1 100/30/1 76/31/1 75/32/1
f 100/29/1 101/30/1 77/31/1 76/32/1
f 101/29/1 102/30/1 78/31/1 77/32/1
f 102/29/1 103/30/1 79/31/1 78/32/1
f 103/29/1 104/30/1 80/31/1 79/32/1
f 104/29/1 105/30/1 81/31/1 80/32/1
f 105/29/1 106/30/1 82/31/1 81/32/1
f 106/29/1 107/30/1 83/31/1 82/32/1
f 107/29/1 108/30/1 84/31/1 83/32/1
f 108/29/1 109/30/1 85/31/1 84/32/1
f 109/29/1 110/30/1 86/31/1 85/32/1
f 110/29/1 111/30/1 87/31/1 86/32/1
f 111/29/1 112/30/1 88/31/1 87/32/1
f 112/29/1 113/30/1 89/31/1 88/32/1
f 113/29/1 114/30/1 90/31/1 89/32/1
f 114/33/1 115/34/1 91/35/1 90/36/1
f 115/13/1 116/14/1 92/15/1 91/16/1
f 117/13/1 118/14/1 94/15/1 93/16/1
f 118/37/1 119/38/1 95/39/1 94/40/1
f 119/41/1 120/42/1 96/43/1 95/44/1
f 120/41/1 121/42/1 97/43/1 96/44/1
f 121/41/1 122/42/1 98/43/1 97/44/1
f 122/41/1 123/42/1 99/43/1 98/44/1
f 123/41/1 124/42/1 100/43/1 99/44/1
f 124/45/1 125/46/1 101/47/1 100/48/1
f 125/29/1 126/30/1 102/31/1 101/32/1
f 126/29/1 127/30/1 103/31/1 102/32/1
f 127/29/1 128/30/1 104/31/1 103/32/1
f 128/29/1 129/30/1 105/31/1 104/32/1
f 129/29/1 130/30/1 106/31/1 105/32/1
f 130/29/1 131/30/1 107/31/1 106/32/1
f 131/29/1 132/30/1 108/31/1 107/32/1
f 132/37/1 133/38/1 109/39/1 108/40/1
f 133/41/1 134/42/1 110/43/1 109/44/1
f 134/41/1 135/42/1 111/43/1 110/44/1
f 135/41/1 136/42/1 112/43/1 111/44/1
f 136/41/1 137/42/1 113/43/1 112/44/1
f 137/41/1 138/42/1 114/43/1 113/44/1
f 138/45/1 139/46/1 115/47/1 114/48/1
f 139/13/1 140/14/1 116/15/1 115/16/1
f 141/13/1 142/14/1 118/15/1 117/16/1
f 142/49/1 143/50/1 119/51/1 118/52/1
f 143/53/1 144/54/1 120/55/1 119/56/1
f 144/53/1 145/54/1 121/55/1 120/56/1
f 145/53/1 146/54/1 122/55/1 121/56/1
f 146/53/1 147/54/1 123/55/1 122/56/1
f 147/53/1 148/54/1 124/55/1 123/56/1
f 148/53/1 149/54/1 125/55/1 124/56/1
f 149/41/1 150/42/1 126/43/1 125/44/1
f 150/41/1 151/42/1 127/43/1 126/44/1
f 151/41/1 152/42/1 128/43/1 127/44/1
f 152/41/1 153/42/1 129/43/1 128/44/1
f 153/41/1 154/42/1 130/43/1 129/44/1
f 154/41/1 155/42/1 131/43/1 130/44/1
f 155/41/1 156/42/1 132/43/1 131/44/1
f 156/53/1 157/54/1 133/55/1 132/56/1
f 157/53/1 158/54/1 134/55/1 133/56/1
f 158/53/1 159/54/1 135/55/1 134/56/1
f 159/53/1 160/54/1 136/55/1 135/56/1
f 160/53/1 161/54/1 137/55/1 136/56/1
f 161/53/1 162/54/1 138/55/1 137/56/1
f 162/57/1 163/58/1 139/59/1 138/60/1
f 163/13/1 164/14/1 140/15/1 139/16/1
f 165/13/1 166/14/1 142/15/1 141/16/1
f 166/61/1 167/62/1 143/63/1 142/64/1
f 167/65/1 168/66/1 144/67/1 143/68/1
f 168/65/1 169/66/1 145/67/1 144/68/1
f 169/65/1 170/66/1 146/67/1 145/68/1
f 170/65/1 171/66/1 147/67/1 146/68/1
f 171/65/1 172/66/1 148/67/1 147/68/1
f 172/65/1 173/66/1 149/67/1 148/68/1
f 173/53/1 174/54/1 150/55/1 149/56/1
f 174/53/1 175/54/1 151/55/1 150/56/1
f 175/53/1 176/54/1 152/55/1 151/56/1
f 176/53/1 177/54/1 153/55/1 152/56/1
f 177/53/1 178/54/1 154/55/1 153/56/1
f 178/53/1 179/54/1 155/55/1 154/56/1
f 179/53/1 180/54/1 156/55/1 155/56/1
f 180/65/1 181/66/1 157/67/1 156/68/1
f 181/65/1 182/66/1 158/67/1 157/68/1
f 182/65/1 183/66/1 159/67/1 158/68/1
f 183/65/1 184/66/1 160/67/1 159/68/1
f 184/65/1 185/66/1 161/67/1 160/68/1
f 185/65/1 186/66/1 162/67/1 161/68/1
f 186/69/1 187/70/1 163/71/1 162/72/1
f 187/13/1 188/14/1 164/15/1 163/16/1
f 189/21/1 190/22/1 166/23/1 165/24/1
f 190/5/1 191/6/1 167/7/1 166/8/1
f 191/5/1 192/6/1 168/7/1 167/8/1
f 192/5/1 193/6/1 169/7/1 168/8/1
f 193/5/1 194/6/1 170/7/1 169/8/1
f 194/5/1 195/6/1 171/7/1 170/8/1
f 195/5/1 196/6/1 172/7/1 171/8/1
f 196/9/1 197/10/1 173/11/1 172/12/1
f 197/49/1 198/50/1 174/51/1 173/52/1
f 198/53/1 199/54/1 175/55/1 174/56/1
f 199/53/1 200/54/1 176/55/1 175/56/1
f 200/53/1 201/54/1 177/55/1 176/56/1
f 201/53/1 202/54/1 178/55/1 177/56/1
f 202/53/1 203/54/1 179/55/1 178/56/1
f 203/57/1 204/58/1 180/59/1 179/60/1
f 204/1/1 205/2/1 181/3/1 180/4/1
f 205/5/1 206/6/1 182/7/1 181/8/1
f 206/5/1 207/6/1 183/7/1 182/8/1
f 207/5/1 208/6/1 184/7/1 183/8/1
f 208/5/1 209/6/1 185/7/1 184/8/1
f 209/5/1 210/6/1 186/7/1 185/8/1
f 210/5/1 211/6/1 187/7/1 186/8/1
f 211/25/1 212/26/1 188/27/1 187/28/1
f 213/13/1 214/14/1 197/15/1 196/16/1
f 214/49/1 215/50/1 198/51/1 197/52/1
f 215/53/1 216/54/1 199/55/1 198/56/1
f 216/53/1 217/54/1 200/55/1 199/56/1
f 217/53/1 218/54/1 201/55/1 200/56/1
f 218/53/1 219/54/1 202/55/1 201/56/1
f 219/53/1 220/54/1 203/55/1 202/56/1
f 220/57/1 221/58/1 204/59/1 203/60/1
f 221/13/1 222/14/1 205/15/1 204/16/1
f 223/13/1 224/14/1 214/15/1 213/16/1
f 224/49/1 225/50/1 215/51/1 214/52/1
f 225/53/1 226/54/1 216/55/1 215/56/1
f 226/53/1 227/54/1 217/55/1 216/56/1
f 227/53/1 228/54/1 218/55/1 217/56/1
f 228/53/1 229/54/1 219/55/1 218/56/1
f 229/53/1 230/54/1 220/55/1 219/56/1
f 230/57/1 231/58/1 221/59/1 220/60/1
f 231/13/1 232/14/1 222/15/1 221/16/1
f 233/13/1 234/14/1 224/15/1 223/16/1
f 234/49/1 235/50/1 225/51/1 224/52/1
f 235/53/1 236/54/1 226/55/1 225/56/1
f 236/53/1 237/54/1 227/55/1 226/56/1
f 237/53/1 238/54/1 228/55/1 227/56/1
f 238/53/1 239/54/1 229/55/1 228/56/1
f 239/53/1 240/54/1 230/55/1 229/56/1
f 240/57/1 241/58/1 231/59/1 230/60/1
f 241/13/1 242/14/1 232/15/1 231/16/1
f 243/13/1 244/14/1 234/15/1 233/16/1
f 244/61/1 245/62/1 235/63/1 234/64/1
f 245/65/1 246/66/1 236/67/1 235/68/1
f 246/65/1 247/66/1 237/67/1 236/68/1
f 247/53/1 248/54/1 238/55/1 237/56/1
f 248/65/1 249/66/1 239/67/1 238/68/1
f 249/65/1 250/66/1 240/67/1 239/68/1
f 250/69/1 251/70/1 241/71/1 240/72/1
f 251/13/1 252/14/1 242/15/1 241/16/1
f 253/21/1 254/22/1 244/23/1 243/24/1
f 254/5/1 255/6/1 245/7/1 244/8/1
f 255/5/1 256/6/1 246/7/1 245/8/1
f 256/9/1 257/10/1 247/11/1 246/12/1
f 257/53/1 258/54/1 248/55/1 247/56/1
f 258/1/1 259/2/1 249/3/1 248/4/1
f 259/5/1 260/6/1 250/7/1 249/8/1
f 260/5/1 261/6/1 251/7/1 250/8/1
f 261/25/1 262/26/1 252/27/1 251/28/1
f 263/73/1 264/74/1 257/75/1 256/76/1
f 264/65/1 265/66/1 258/67/1 257/68/1
f 265/73/1 266/74/1 259/75/1 258/76/1

g mesh_0002
f 120/77/1 121/78/1 97/79/1 96/80/1
f 121/81/1 122/82/1 98/83/1 97/84/1
f 122/85/1 123/86/1 99/87/1 98/88/1
f 144/89/1 145/90/1 121/91/1 120/92/1
f 145/93/1 146/94/1 122/95/1 121/96/1
f 146/97/1 147/98/1 123/99/1 122/100/1
f 157/101/1 158/102/1 134/103/1 133/104/1
f 158/105/1 159/106/1 135/107/1 134/108/1
f 159/105/1 160/106/1 136/107/1 135/108/1
f 160/105/1 161/106/1 137/107/1 136/108/1
f 161/109/1 162/110/1 138/111/1 137/112/1
f 181/113/1 182/114/1 158/115/1 157/116/1
f 182/117/1 183/118/1 159/119/1 158/120/1
f 183/117/1 184/118/1 160/119/1 159/120/1
f 184/117/1 185/118/1 161/119/1 160/120/1
f 185/121/1 186/122/1 162/123/1 161/124/1
f 216/125/1 217/126/1 200/127/1 199/128/1
f 217/129/1 218/130/1 201/131/1 200/132/1
f 218/133/1 219/134/1 202/135/1 201/136/1
f 225/137/1 226/138/1 216/139/1 215/140/1
f 226/141/1 227/142/1 217/143/1 216/144/1
f 227/145/1 228/146/1 218/147/1 217/148/1
f 228/149/1 229/150/1 219/151/1 218/152/1
f 229/137/1 230/138/1 220/139/1 219/140/1
f 236/153/1 237/154/1 227/155/1 226/156/1
f 237/157/1 238/158/1 228/159/1 227/160/1
f 238/161/1 239/162/1 229/163/1 228/164/1

g mesh_0003
f 70/165/1 71/166/1 43/167/1 42/168/1
f 72/169/1 73/170/1 45/171/1 44/172/1
f 73/173/1 74/174/1 46/175/1 45/176/1
f 74/177/1 75/178/1 47/179/1 46/180/1
f 76/165/1 77/166/1 49/167/1 48/168/1
f 85/181/1 86/182/1 62/183/1 61/184/1
f 87/165/1 88/166/1 64/167/1 63/168/1
f 89/185/1 90/186/1 66/187/1 65/188/1
f 96/189/1 97/190/1 73/191/1 72/192/1
f 97/193/1 98/194/1 74/195/1 73/196/1
f 98/197/1 99/198/1 75/199/1 74/200/1
f 102/165/1 103/166/1 79/167/1 78/168/1
f 106/165/1 107/166/1 83/167/1 82/168/1
f 112/201/1 113/202/1 89/203/1 88/204/1
f 128/205/1 129/206/1 105/207/1 104/208/1
f 133/209/1 134/210/1 110/211/1 109/212/1
f 134/213/1 135/214/1 111/215/1 110/216/1
f 136/217/1 137/218/1 113/219/1 112/220/1
f 138/221/1 139/222/1 115/223/1 114/224/1
f 150/225/1 151/226/1 127/227/1 126/228/1
f 151/225/1 152/226/1 128/227/1 127/228/1
f 153/225/1 154/226/1 130/227/1 129/228/1
f 154/225/1 155/226/1 131/227/1 130/228/1
f 162/229/1 163/230/1 139/231/1 138/232/1
f 166/233/1 167/234/1 143/235/1 142/236/1
f 167/237/1 168/238/1 144/239/1 143/240/1
f 215/241/1 216/242/1 199/243/1 198/244/1
f 219/245/1 220/246/1 203/247/1 202/248/1
f 235/241/1 236/242/1 226/243/1 225/244/1
f 239/245/1 240/246/1 230/247/1 229/248/1

g mesh_0004
f 104/249/1 105/250/1 81/251/1 80/252/1
f 225/253/1 226/254/1 216/255/1 215/256/1
f 229/253/1 230/254/1 220/255/1 219/256/1

